<svg height="60" viewBox="0 0 200 60" width="200" xmlns="http://www.w3.org/2000/svg"><path d="m42.7396026 45.1849866-1.2107387-5.5335121h-6.6381878l-1.2107387 5.5335121h-6.6799374l7.1809327-30.3699732h8.3916715l7.1391831 30.3699732zm-4.4254586-23.7640751h-.1669984l-2.5049765 12.9115282h5.0517026zm29.4232369 23.7640751-3.9662128-12.0965148h-1.9622317v12.0965148h-6.4294397v-30.3699732h9.4771612c2.8668208 0 5.0934444.7649611 6.6799374 2.2949062 1.5864931 1.5299451 2.3797277 3.8105299 2.3797277 6.841823 0 1.1152871-.1252475 2.1161708-.3757464 3.002681s-.5775343 1.6443221-.9811158 2.2734584c-.4035816.6291363-.8558645 1.1438765-1.3568623 1.544236-.5009978.4003594-.9880717.6863262-1.4612364.8579088l5.0517027 13.5549598zm-.4174961-20.847185c0-.7721218-.104373-1.4012487-.313122-1.8873995-.2087491-.4861507-.4801189-.8722059-.8141174-1.1581769-.3339986-.285971-.7027831-.4789986-1.1063647-.5790885-.4035815-.1000898-.8001988-.150134-1.1898638-.150134h-2.0874805v7.6782842h1.9622317c.9463292 0 1.7743548-.3074143 2.4841017-.922252.7097469-.6148378 1.064615-1.6085723 1.064615-2.9812333zm31.6188504 17.5442359c-.8071631 1.1724813-1.8648093 2.1519175-3.1729702 2.9383378-1.308161.7864204-2.9781287 1.1796247-5.0099531 1.1796247-1.7256591 0-3.2912538-.3932043-4.696831-1.1796247-1.4055772-.7864203-2.6093456-1.8873924-3.6113412-3.302949-1.0019956-1.4155567-1.7813139-3.1027606-2.3379781-5.0616622-.5566642-1.9589017-.8349922-4.1108015-.8349922-6.4557641 0-2.3735597.278328-4.546907.8349922-6.5201072.5566642-1.9732003 1.3359825-3.6604041 2.3379781-5.0616622 1.0019956-1.4012582 2.205764-2.4879318 3.6113412-3.2600537 1.4055772-.7721218 2.9711719-1.1581769 4.696831-1.1581769 1.976158 0 3.6252511.3646076 4.9473287 1.0938338 1.3220775.7292261 2.3866819 1.6371706 3.193845 2.7238606l-3.5904663 4.9758713c-.5009978-.6863305-1.0646119-1.2296674-1.6908592-1.6300268-.6262473-.4003595-1.4125237-.6005362-2.3588529-.6005362-.8906628 0-1.6630228.2430717-2.3171033.7292225s-1.2107364 1.1510235-1.6699844 1.9946381-.8001997 1.8444982-1.0228654 3.0026809c-.2226657 1.1581828-.3339969 2.394989-.3339969 3.7104558s.1113312 2.5451239.3339969 3.689008c.2226657 1.1438842.5636174 2.1447679 1.0228654 3.002681s1.0228621 1.529935 1.6908592 2.0160858 1.4473153.7292225 2.3379781.7292225 1.669981-.2287734 2.3379781-.6863271c.6679971-.4575536 1.1968202-1.0008905 1.5864851-1.6300268zm19.4098888 3.3029491-1.210738-5.5335121h-6.638188l-1.210739 5.5335121h-6.679937l7.180933-30.3699732h8.391671l7.139183 30.3699732zm-4.425458-23.7640751h-.166999l-2.504976 12.9115282h5.051703zm37.248009 8.6648794c0 2.2877683-.243537 4.3610273-.730618 6.2198391s-1.231608 3.4459273-2.233604 4.7613941-2.275346 2.3306488-3.820089 3.0455764c-1.544744.7149277-3.37475 1.0723861-5.490074 1.0723861h-8.308172v-30.3699732h8.308172c2.115324 0 3.94533.3574584 5.490074 1.0723861 1.544743.7149276 2.818093 1.7372587 3.820089 3.0670241s1.746523 2.9311792 2.233604 4.8042895c.487081 1.8731104.730618 3.9821152.730618 6.3270778zm-6.721687 0c0-3.0598902-.507948-5.3690718-1.523861-6.927614-1.015912-1.5585422-2.331011-2.3378016-3.945338-2.3378016h-1.628234v18.3592494h1.628234c1.614327 0 2.929426-.7792594 3.945338-2.3378016 1.015913-1.5585422 1.523861-3.8105304 1.523861-6.7560322zm11.77115 15.0991957v-30.3699732h14.278367v6.0482574h-7.890676v5.9624665h7.264432v5.6621984h-7.264432v6.5630026h8.391671v6.1340483z"/></svg>