<svg height="250" viewBox="0 0 500 250" width="500" xmlns="http://www.w3.org/2000/svg" xmlns:xlink="http://www.w3.org/1999/xlink"><linearGradient id="a" x1="50%" x2="50%" y1="0%" y2="100%"><stop offset="0" stop-color="#cc994f"/><stop offset="1" stop-color="#864810"/></linearGradient><linearGradient id="b" x1="50%" x2="50%" y1="0%" y2="99.018159%"><stop offset="0" stop-color="#ffed98"/><stop offset="1" stop-color="#ffb500"/></linearGradient><g fill="none" fill-rule="evenodd"><g fill="url(#a)"><path d="m109.814523 159.229914-15.9134521 4.723215 13.2578681 7.618886 14.416132-4.439297z"/><path d="m426.722028 128.849015-18.663819-6.40296-3.299709 9.67745 10.548546 3.443099z"/><path d="m416.059809 155.102193-12.341587 5.950463-8.101808-2.568808 3.260832-9.276443z"/><path d="m95.1170055 100.538284 15.6179615 16.904482 33.350644 56.861148-10.822463-7.985414z"/><path d="m116.549019 171.279361 16.714129-4.960861 10.822463 7.985414-15.911626 4.142991z"/><path d="m78.8171231 182.478431 16.0135368-4.752921 14.0207061 6.878828-14.9183696 4.167633z"/><path d="m144.085611 163.938646 11.22971 9.388959 14.175122-2.252951-9.524869-9.64917z"/><path d="m192.034851 156.350202-17.426713 2.757951 8.275879 9.981507 14.809626-1.713116z"/><path d="m408.698153 185.24701-13.121766 5.87857-32.716029-10.489889 10.880166-7.381526z"/><path d="m316.088687 160.670477-6.707528 10.068831c9.44653 1.482969 18.360587 2.641273 26.742171 3.474911 12.572375 1.250457 23.351992-9.816619 26.95317-16.295367z"/><path d="m306.107972 158.007986-6.154343 11.100713-15.239885-1.564788 4.006994-10.822915z"/><path d="m249.469318 153.815635 16.658427 1.233044-1.536738 11.70034-14.696784-.756195z"/><path d="m286.69554 143.066649-3.748937 12.458831-14.65268-1.309022 1.847304-12.375147z"/><path d="m93.9010709 163.953129 13.2578681 7.618886 1.692427 13.032323-14.0207061-6.878828z"/><path d="m150.598333 102.23653 9.649642 14.42279 1.348545 7.847555-8.077044-3.812466z"/><path d="m150.598333 102.23653 15.247887-2.4534724 4.18221 18.1539394c-2.78814-1.542328-6.048292-1.968221-9.780455-1.277677z"/><path d="m159.965574 161.425484-4.602025-29.078894 10.583174 13.386072 3.54372 25.341992z"/><path d="m155.363549 132.34659 4.846483-.767004 9.818398 13.285572-4.081707.867504z"/><path d="m397.726214 103.338906-11.860993 12.284599-23.004863 65.012186 10.880166-7.381526z"/><path d="m330.849077 88.2249741-14.76039 72.4455029-6.682436 10.031164 14.073975-67.362735z"/><path d="m281.817705 97.6140059 7.52683 33.8852151-10.529479 1.593339-1.826418-9.150293z"/><path d="m281.921723 97.0979882-4.933085 26.8442788-2.978555 8.181238-4.037603-3.796078z"/><path d="m270.141227 141.841311-4.013482 13.207368-1.530434 11.878016 3.696612-12.710237z"/><path d="m286.69554 143.066649 2.025198 13.654347-3.970971 10.725616-1.922278-11.779471z"/><path d="m241.412984 87.4598152.723081 10.8221474-8.154007 10.8221474-1.108629-9.3210524z"/><path d="m200.923876 101.272592 30.335088-13.0476179c.574197 3.7082906 1.067522 7.1998022 1.479975 10.4745348l1.243119 10.4046011c-1.108629-1.356701-1.991231-1.970362-3.596955-2.87783-1.605723-.907467-3.590708-1.311275-5.955013-1.211437-2.225228.093966-4.129929.766519-5.714162 2.017677-1.584232 1.251159-2.906707 2.92663-3.967466 5.026463-1.060758 2.099834-1.809817 4.569611-2.247198 7.409407s-.588531 5.859031-.453455 9.057796l.181613 1.628489-11.305546-28.882083 30.335088-13.0476179z"/><path d="m197.693643 138.1378 46.294649 7.833862 1.024342 13.926276c-1.269065 1.243739-2.698912 2.377173-4.28955 3.400314-3.187552 2.050318-7.319417 3.18264-12.395718 3.397-4.311379.182059-8.26323-.608907-11.85567-2.372922s-6.712981-4.314203-9.361716-7.650641c-.747385-.941433-2.009087-3.080112-3.785104-6.416037z"/><path d="m179.461788 97.7933381c2.930582 5.5003869 5.30564 10.6799889 7.125173 15.5388069.82593 2.205536 1.14854 6.952757.867103 9.181761s-1.212044 4.2221-1.969493 5.892239c-.757449 1.670138-1.654993 2.76527-2.740085 3.923529-1.085093 1.158259-2.179314 2.036085-3.282698 2.633506l-2.208221.477158-5.296-7.68z"/><path d="m89.4830622 118.981301-.4003384.118823 2.9363563 31.907811 10.6275009-3.154311-.192173-3.691525z"/><path d="m357.352122 131.529881c1.477704-7.29916 1.34794-13.05959-.389298-17.281463s-4.584091-6.733271-8.540644-7.53427l-3.990642-.8079-2.495127 12.32474c8.886465 0 10.887189 10.212935 6.002172 30.638804.826237-.542504 1.631581-1.202493 2.416034-1.979968 3.242563-3.21372 5.575041-8.33365 6.997505-15.359943z"/></g><path d="m397.726214 103.338906 33.772625 11.586307-4.776811 13.923802-18.663819-6.40296-4.709055 13.726301 17.182564 5.894789-4.471909 13.035048-17.182563-5.894788-5.183349 15.108806 19.848824 6.809496-4.844568 14.121303-34.957629-11.992845zm-302.6092085-2.800622 38.1461425 65.780216-16.714129 4.960861-6.734496-12.049447-15.9134521 4.723215.929589 13.772381-16.0135368 4.752921-3.8171231-75.96929zm235.6381725-12.3133099 20.362507 4.1223611c5.18445 1.0495846 9.496987 2.8102925 12.937742 5.2821766 3.440754 2.4718842 6.067898 5.5423982 7.88151 9.2116342 1.813612 3.669237 2.865008 7.858721 3.15422 12.568579.289211 4.709858-.1324 9.861584-1.264846 15.455332-1.104826 5.457316-2.702945 10.282095-4.794403 14.474484-2.091459 4.192388-4.682683 7.608923-7.77375 10.249708s-6.702182 4.430619-10.833453 5.369558c-4.13127.938938-8.789061.883615-13.973511-.165969l-20.362507-4.122361zm-157.444365 1.9082837c4.500507 3.0577114 7.327335 8.2299625 8.480566 15.5169082.424303 2.681047.495734 5.136035.214297 7.365039s-.800872 4.178545-1.558322 5.848684c-.757449 1.670138-1.678706 3.084316-2.763798 4.242574-1.085092 1.158259-2.179314 2.036086-3.282698 2.633506l17.633993 30.610233-17.426713 2.757951-14.398106-27.528567-4.846483.767004 4.602025 29.078894-15.879963 2.513162-11.554019-73.0065845 23.407478-3.7044665c7.080712-1.1205931 12.871235-.1520485 17.371743 2.9056628zm99.522536-8.7056432 20.92715 1.5490121 12.347473 75.0313593-17.387234-1.28699-2.025198-13.654347-16.554313-1.225338-4.013482 13.207368-16.658427-1.233044zm-39.679548-.254342c3.377952 1.6337478 6.130986 3.729241 8.259183 6.2865426l-8.459467 12.4784156c-1.322166-1.6160651-2.786088-2.8778124-4.391812-3.7852798-1.605723-.9074674-3.590708-1.3112756-5.955013-1.2114367-2.225228.093966-4.129929.7665183-5.714162 2.017677-1.584232 1.2511587-2.906708 2.9266296-3.967466 5.0264627-1.060758 2.099834-1.809817 4.569611-2.247198 7.409407s-.588531 5.859031-.453455 9.057796.53949 6.177125 1.213255 8.935169c.673764 2.758043 1.62837 5.155879 2.863847 7.193579 1.235476 2.0377 2.712612 3.612365 4.431453 4.724043 1.71884 1.111678 3.690845 1.620527 5.916073 1.52656 2.225228-.093966 4.148782-.732483 5.77072-1.915572 1.621938-1.183088 2.887356-2.560089 3.796292-4.131044l9.772241 11.18607c-1.896219 2.93623-4.438066 5.429466-7.625617 7.479784-3.187552 2.050318-7.319417 3.18264-12.395718 3.397-4.311379.182059-8.26323-.608907-11.85567-2.372922s-6.712981-4.314203-9.361716-7.650641-4.769028-7.356922-6.360942-12.061572c-1.591913-4.70465-2.50825-9.90797-2.749038-15.610117-.243724-5.771685.228483-11.085886 1.416636-15.942763 1.188153-4.8568768 2.961951-9.0417985 5.321448-12.5548907 2.359496-3.5130922 5.255402-6.28251 8.687806-8.3083363 3.432405-2.0258263 7.304238-3.1297525 11.615618-3.3118116 4.937224-.2084872 9.09475.5041324 12.472702 2.1378802zm-143.6707388 37.8080284-.4003384.118823 2.9363563 31.907811 12.1102369-3.594397zm254.9484758-13.075053-8.866184 43.794739 3.990642.8079c3.956554.800998 7.556058-.405344 10.798621-3.619063 3.242563-3.21372 5.575041-8.33365 6.997505-15.359943 1.477704-7.29916 1.34794-13.05959-.389298-17.281463s-4.584091-6.733271-8.540644-7.53427zm-62.894053-7.7127765-8.566575 30.8762755 12.597936.93249-3.6149-31.7779394zm-125.78332 3.2270965-5.155832.815962 2.921143 18.457879 4.846482-.767004c2.337322-.369904 4.265495-1.432561 5.784577-3.188002s2.017506-4.282998 1.495288-7.582748c-.293748-1.856109-.790884-3.327673-1.491422-4.414738-.700538-1.087064-1.517661-1.909031-2.451394-2.465924-.933732-.556893-1.918023-.876762-2.9529-.959615-1.034878-.082853-2.033515-.048124-2.995942.10419zm75.504799-55.420568v2.5531088h-4.231076v15.4468912h-2.78486v-15.4468912h-4.243028v-2.5531088zm9.330677 0v7.0414508h7.96016v-7.0414508h2.78486v18h-2.78486v-8.4054404h-7.96016v8.4054404h-2.78486v-18zm27.410359 0v2.5531088h-7.398406v4.3251295h7.183267v2.5531089h-7.183267v6.015544h7.398406v2.5531088h-10.183267v-18z" fill="url(#b)" fill-rule="nonzero"/></g></svg>