<svg height="60" viewBox="0 0 200 60" width="200" xmlns="http://www.w3.org/2000/svg" xmlns:xlink="http://www.w3.org/1999/xlink"><defs><path id="a" d="m30.8179741 27 .0891089 1.2765957c.5437956-.263646 1.0944374-.3954671 1.6519421-.3954671.6763172 0 1.3640483.1942626 2.063214.5827937.3244495.1757641.5883463.4128107.7916984.7111471.2033522.2983363.3518655.6336706.4455446 1.0060129s.1405179.7597112.1405179 1.1621184c0 .3330267-.0262754.6544851-.0788271.9643849s-.1245235.5943558-.2159178.8533765c-.0913942.2590207-.1987808.4787225-.3221629.6591119-.3838557.5827966-.801978 1.0545773-1.2543793 1.4153562-.4524014.3607788-.9070808.6197957-1.3640518.7770582-.4569711.1572626-.9185049.2358927-1.3846154.2358927l.335872 5.5851064-3.0845392.1665125-.4661081-9.0055504v-.0693802l-.0175477-.248659c-.0065803-.1098981-.0098705-.1981492-.0098705-.2647545l-.1233815-2.4560592-1.0144707.2220166.335872-1.699815zm18.229991-4 .9520349 14.8266297-3.2776163.1733703-.6540697-12.0457698-1.068314.2288489.3561047-1.705964zm66.1729509-4.7644053.48294.0530229c.755385.0871077 1.263153.1682787 1.523315.2435147.471076.1429149.909621.3400085 1.315647.5912867s.758762.5671565 1.058218.9476444.530464.8167881.693032 1.3089136c.064577.2011221.08552.4084692.063069.6220727-.084114.7974216-.620856 1.7345866-1.610241 2.8115231-.989385 1.0769364-1.966519 2.0039721-2.931432 2.7811349l-.954692.75955c-.499773.391584-.899566.6930669-1.199385.904453l1.19837 6.9388372-2.991864 1.7274018-3.391608-14.5109209c-.008485-.0008887-.038631.0205727-.090437.0643845l-1.068431.9588043c-.021213-.0022217-.074009-.162516-.15839-.480888l-.221087-.870991-.377429-1.5393206-.355583-1.4052111c-.092066-.347169-.160375-.5806725-.204928-.7005142l1.288332-.2807871c.416064-.0895978.818747-.175198 1.208054-.2568013.778614-.1632064 1.596561-.3096928 2.453865-.4394636.857304-.1297707 1.674545-.2187439 2.45175-.2669222.597421-.0382125 1.203718-.0251053 1.818915.0392762zm13.603643 3.9393842.529295 8.1648339 2.9898-1.6188285 3.104243.4594928-4.04839 3.0679982 3.812353 2.8417863.171663 2.8347173-5.621969-3.994053.178816 3.4709381-3.404653.063622-.643737-12.2790619-1.051437.233281.350479-1.7390036zm-32.4338072.8250211-.0479417 4.6736215 2.2327116.0556383v2.6775956l-2.3148973.0278192c-.0821861.6583905-.1232786 1.2773609-.1232786 1.85693 0 .4822014.027395.8809389.0821857 1.1962245.045659.2596469.1598047.4590157.3424405.5981123s.3949467.2086438.6369392.2086438c.2693878 0 .5056693-.0811385.7088517-.2434178.2031823-.1622793.304772-.3848305.304772-.6676602l-.0068488-.0921509c-.0045659-.0405695-.0114147-.0909917-.0205465-.1512669l2.2395604-1.4813711c.095884.1808256.215737.4845152.359563.911078.143825.4265628.215737.8925294.215737 1.3979136 0 .6073884-.157521 1.1568116-.472568 1.6482861-.315047.4914746-.8538141.8647115-1.6163187 1.1197218-.5342097.176189-1.0387336.2642822-1.5135867.2642822-.7168455 0-1.3480711-.1599587-1.8936956-.4798808s-.9987828-.7047502-1.3594885-1.1544958c-.1689381-.2086448-.3002056-.5540628-.3938065-1.0362642-.0936009-.4822015-.1540981-.9852599-.1814934-1.5091903-.0273954-.5239304-.0410929-1.047853-.0410929-1.5717834v-.7858917l-2.0203985.0625931c-.3512816-2.0454475-.5202188-3.0909848-.5068119-3.136612.0326064-.0154696.8841416.042487 2.5546057.1738699l-.1575226-3.1922504zm-41.5640597-1 1.1733079 14.6296719-3.2904251.3703281-.7732279-12.2800328-.936347.4149788.3561047-1.6841587zm13.5397965.2443235.0762969 4.4979992 2.2264061-.2514058.0778414 2.8243242-2.2491739.2916256c-.0565044.6543831.1438052 2.293155.1638278 2.8667593.0166589.4772388.0568505.8709498.1205763 1.1811448.052998.2554367.4714282.8137382.6523451.9452509-.0880052.2856753-1.1210244 1.6542327-1.349935 2.1113127-.5371853-.2982493-.9874501-.6638514-1.3508077-1.0968173-.1701112-.2008066-.3086227-.5382476-.4155386-1.0123333-.106916-.4740857-.1826314-.9699289-.2271486-1.4875443-.0445172-.5176155-.1821609-2.0918429-.2002614-2.6103812l-.0271506-.7778036-1.9460603.1300098-.4577654-2.894972 2.3300495-.1062624-.2621795-3.1540905zm113.0484704 10.0959502c.406524.0428698.749696.151652 1.029527.3263498.27983.1746979.503494.3743612.670997.5989961.167504.2246348.277607.4169563.330312.5769701.050785.1783461.065935.365288.045451.5608313-.031367.2994258-.123012.5940349-.274938.8838363-.151926.2898013-.327206.5400665-.525845.750803-.198638.2107364-.37367.3204751-.525098.3292192-.314309.0162807-.540168.0171754-.677585.0026812-.566844-.0597732-1.004116-.2649725-1.311828-.6156012s-.464572-.8011847-.470583-1.3516815c.055052-.5255227.225068-1.0018451.510054-1.4289815.284986-.4271363.684827-.6382751 1.199536-.6334228zm-139.726932-4.3402737c.5711102 0 1.1141065.0931828 1.629005.2795513.5148986.1863685.9657092.4567138 1.3524452.811044l-3.703204 4.521139c.3282759 0 .6396837-.0701748.9342327-.2105264.294549-.1403515.565485-.3405221.8128162-.6005176.2473312-.2599956.4676775-.5648531.6610455-.9145816l1.6256324 2.0086281c-.130411.3865421-.4395704.740867-.9274874 1.0629854s-1.0680123.576358-1.7403035.7627265-1.343448.2795513-2.0134907.2795513c-.5935949 0-1.1231006-.0805284-1.5885329-.2415876s-.8240572-.4049451-1.0758853-.7316652c-.4362023-.5614063-.6543002-1.2792594-.6543002-2.1535807 0-.6902536.1225395-1.3701433.3676223-2.0396894.2450827-.669546.5047766-1.1377611.7790893-1.4046592.328276-.3175166.6846524-.5821099 1.06914-.7937877s.7835842-.3704338 1.1973019-.4762727c.4137176-.1058388.8386712-.1587575 1.2748735-.1587575zm32.353516-5 .4896143 5.2013218c.8852665-.2599572 1.6493538-.3899339 2.2922848-.3899339.5885292 0 1.1003935.1123527 1.5356083.3370615.2621181.1365877.5563782.3425677.8827894.6179461.3264111.2753785.6144893.5782918.8642433.9087443.249754.3304541.4166662.6520913.5007418.9649212.2621181.9384897.3931751 1.7580036.3931751 2.4585664 0 .3701086-.0272005.7589371-.0816024 1.1664972l-.0538969.3776602c-.0509699.3383198-.1170791.7356476-.1983286 1.191989l-3.1008902.1652262.0082427-.2526126c.0043961-.1899485.0065941-.4229777.0065941-.6990905 0-1.7271735-.2670596-3.1965708-.8011869-4.4082359-.2077162-.4538236-.4104837-.6807321-.6083087-.6807321-.2571724 0-.5415414.3172312-.8531157.9517031-.0741843.154212-.1347673.3304515-.1817507.528724-.0469834.1982724-.0816023.4207749-.1038576.667514-.0222553.246739-.0333828.5375343-.0333828.8723945l.0065941.4794424c.0153862.5909518.0576984 1.2925131.1269371 2.1046958l-3.6424333.3767159c-.0316519-.204441-.0538081-.4370778-.0664688-.6979151l-.0077151-.2009157c-.0148369-.3436722-.024728-.6983543-.0296736-1.0640569l-.0194733-.5245934c-.0080366-.1668781-.0176187-.3257702-.0287463-.4766776-.0222553-.3018147-.0680016-.6443804-.1372404-1.0277071l-.2002967-8.6182003zm-53.6708533-4c1.074718 0 2.2068906.1592596 3.3965517.4777837s2.6005665.7568673 4.2327586 1.3150429l-.1575187.4092591c-.082636.2243741-.186526.5160603-.3116705.8750599l-.6917312 2.0020267c-.1915709.5392974-.2988496.8089433-.3218382.8089433l-.0627925-.0487614c-.0577323-.0396289-1.6669022-.9295873-3.2089667-1.4910029-1.4162926-.5156262-2.7717048-.7080943-2.9092753-.7080943-.2643691 0-.4655166.0546033-.6034483.1638115-.2356333.1759467-.3534483.3822258-.3534483.6188437 0 .2184165.0977002.4565476.2931035.7144004.1954033.2578529.4511478.5141851.7672414.7690043.3160935.2548193.6666647.5035677 1.0517241.7462527.2567063.16179.5108557.3127926.7624517.4530096l.3754793.2022366c.7701188.4004303 1.4382156.8569746 2.0043104 1.3696467s1.0071823 1.0238197 1.3232759 1.5334583c.3160935.5096385.547413 1.0268532.6939655 1.5516595.1465524.5248063.2198276 1.0207864.2198276 1.487955 0 .5521084-.0948267 1.0556723-.2844828 1.5107067-.3505765.7826591-.8649391 1.3514436-1.5431035 1.7063704-.6781643.3549268-1.488501.5323876-2.4310344.5323876-.5402326 0-1.1479852-.0591536-1.8232759-.1774625-.6752907-.118309-1.3275831-.2669513-1.9568965-.4459315-.6293135-.1789802-1.2931-.3852594-1.9913794-.6188437l-1.8405172-.623394.0746229-.1754718c.070492-.1749025.1617496-.4214956.2737739-.7397819l.7550515-2.2153675.1767241-.5005351c.1120695-.3094234.1795976-.4641328.2025862-.4641328.1609204.1395439.7011448.4444124 1.6206897.9146146.9195448.4702022 2.9284753 1.3515903 4.0621547 1.4310683s1.4868514-.3933567 1.4895694-.8986807-.5231621-1.002659-1.5695009-1.6149793l-.2322232-.1323441c-.7356359-.4064974-1.5531564-.9752818-2.4525862-1.7063704s-1.6867783-1.5774399-2.362069-2.5390792c-.6752907-.9616394-1.012931-1.9217476-1.012931-2.8803534 0-.4914371.1063207-.9737663.3189655-1.4470021.6436814-1.4439758 1.985622-2.1659529 4.0258621-2.1659529zm69.4627882 7 .1665221 9.8276986c-1.9770953.1231143-3.0178586.1802521-3.1222897.1714133s-.1044311-.154064 0-.4356756c-.5088201.2142678-1.0222582.3214-1.5403296.3214-.3978048 0-.7713194-.0618986-1.120555-.1856977-.3492357-.1237992-.651054-.2904494-.905464-.4999556-.4116818-.3523515-.7331588-.8273045-.9644406-1.4248735-.2312819-.5975689-.3469211-1.2296493-.3469211-1.8962601 0-1.1475229.321477-2.0736219.9644406-2.7783247.5550765-.5999497 1.1274905-1.0546667 1.7172593-1.3641646.5897688-.3094978 1.192249-.4642444 1.8074588-.4642444l.2254989.0035711c.0647584.0023807.1191092.0059518.1630527.0107133l.0555074.0571378zm31.1078621 1.4337277c.37387 0 .733356.0458121 1.078467.1374378.345112.0916256.706994.2384594 1.085658.4405058.340318.1785525.617122.41936.83042.7224295s.369075.6437239.467335 1.0219735c.098261.3782495.147391.7717641.147391 1.1805555 0 .3383102-.027561.6648685-.082682.9796849-.055122.3148164-.130614.6037853-.226479.8669154-.095864.2631302-.208503.4863175-.337919.6695689-.301973.4416827-.62551.8222759-.970621 1.141791-.345112.3195151-.697407.576768-1.056898.7717662s-.715382.338308-1.067683.4299336c-.352301.0916257-.701002.1374379-1.046114.1374379-.407423 0-.794469-.0622576-1.16115-.1867745s-.679433-.2877961-.938266-.4898425c-.426596-.3477076-.75972-.8164011-.99938-1.4060945-.239661-.5896934-.35949-1.2134434-.35949-1.8712686 0-1.1323993.333124-2.0462929.99938-2.7417082.570393-.5967415 1.159949-1.0466402 1.768687-1.3497098.608738-.3030695 1.231846-.4546019 1.869344-.4546019zm19.833771.25c.606561 0 1.183262.0960948 1.730122.2882873.546859.1921925 1.025653.4709861 1.436395.8363891l-3.933072 4.6624245c.348653 0 .679391-.0723677.992223-.2171053.312832-.1447375.600586-.3511634.86327-.6192838s.496707-.5825047.702078-.9431622l1.72654 2.0713977c-.138506.3986215-.466856.7640191-.985059 1.0962036-.518203.3321846-1.134307.5943692-1.848329.7865617s-1.426839.2882874-2.138473.2882874c-.630441 0-1.192815-.0830449-1.687137-.2491372-.494323-.1660923-.875209-.4175997-1.142669-.7545298-.463278-.5789503-.694914-1.3192362-.694914-2.2208801 0-.7118241.130146-1.4129603.390441-2.1034297.260296-.6904693.53611-1.1733161.82745-1.4485547.348653-.3274391.72715-.6003009 1.135504-.8185937.408354-.2182927.832224-.3820098 1.271622-.4911561.439398-.1091464.890729-.1637187 1.354008-.1637187zm33.581277-.7587488c.458413 0 .860688.1027059 1.206837.308121.416314.2436318.810255.4144946 1.292057 1.0020772.481801.5875825.836278 1.3769012.95322 1.878496.247918 1.017521.371875 1.9060472.371875 2.6656051 0 .4012759-.025727.8228481-.077182 1.2647293l-.050977.4094635c-.048208.3668101-.110736.7975973-.187584 1.2923677l-2.932894.1791402.007796-.2738854c.004158-.2059443.006237-.4585972.006237-.7579618 0-1.8726208-.252591-3.4657577-.757781-4.7794586-.196463-.4920406-.388245-.7380573-.575352-.7380573-.24324 0-.512203.3439456-.806897 1.0318471-.070165.1671983-.127466.3582792-.171904.5732485-.044438.2149692-.077182.4562088-.098231.7237261l-.020208.3439491c-.007577.183439-.011366.3840753-.011366.6019107l.006236.5198169c.014553.6407166.054573 1.4013571.120061 2.2819347l-3.445099.4084395c-.056132-.4203842-.107586-.8383737-.154362-1.2539809-.046777-.4156071-.083029-.8013517-.108756-1.1572452s-.038591-.7392495-.038591-1.1500796l.004491-.2499362c.00449-.143885.012349-.3161456.023575-.5167836l-.126297-4.1775477 2.757482-.3582803.39994.47293.495054-.1628188c.313922-.0992568.59562-.1799357.845096-.2420379.374215-.0931534.732053-.1397293 1.073524-.1397293zm-10.644801.2874797c.385698-.0581001.759147-.0486513 1.120357.0283466.361211.0769978.689825.2367161.985854.4791595.332485.2684375.607726.5431168.825729.8240461s.399478.5930201.544437.9362785c.247153.5853081.349481 1.2168199.306978 1.8945574s-.227375 1.3954373-.554622 2.1531209c-.380759.8843906-1.091451 1.5485897-2.132095 1.992626-.60453.2579326-1.224199.3924945-1.859031.403681s-1.194703-.1108834-1.679632-.3662132c-.286027-.1584178-.557332-.3815413-.813924-.669377-.256592-.2878358-.463865-.6187823-.621831-.9928467-.133796-.3168595-.226888-.6549757-.279276-1.0143612-.052387-.3593856-.058669-.7423328-.018847-1.1488532s.139644-.8308455.29947-1.2729882c.159825-.4421426.384144-.8884267.672964-1.3388656.118228-.1906764.279661-.3816079.484304-.5728002s.44093-.373812.708868-.5478644.557351-.3274041.868247-.4600679c.375673-.1602839.756351-.2694783 1.14205-.3275784zm-9.067631-.2874797c.469366 0 .873015.0953605 1.210959.2860845.417736.237242.868321.6419429 1.351768 1.2141148s.783837 1.1024697.901179 1.5909091c.248764.9908343.373144 1.8560569.373144 2.5956938 0 .3907516-.025814.8012671-.077445 1.231559l-.081899.6205142c-.043296.3056877-.095788.6512476-.157476 1.0366828l-2.942913.1744418.012517-.6016297c.001043-.1230136.001564-.2573985.001564-.403155 0-1.8235073-.253454-3.3748607-.760369-4.6541069-.093874-.2279384-.204173-.4070302-.330902-.5372807s-.239375-.1953748-.337942-.1953748c-.103261 0-.15489.0721019-.15489.2163078 0 .0837325.009387.1558344.028162.2163078.032855.0744289.065711.1744412.098566.3000399.253458 1.0094415.380185 1.8746641.380185 2.5956938 0 .3535371-.023468.7245129-.070405 1.1129386l-.05867.4562622c-.046936.3493995-.109518.7892495-.187746 1.3195552l-2.942912.1744418.010561-.4256376c.002347-.1674637.00352-.3605123.00352-.5791471 0-1.6875315-.21796-3.1392049-.653887-4.3550568l-.113523-.2990501c-.040678-.0992385-.075098-.202094-.10326-.3085679l-.067276-.3000405c-.017731-.0733947-.03129-.1100917-.040678-.1100917-.010728 0-.032951.0356949-.066668.1070854l-.095262.2208651c-.08918.2186348-.185399.4442439-.288659.6768342-.070405.1628131-.127902.3488825-.172492.5582137-.044589.2093312-.077444.4442437-.098566.7047448-.016897.2084008-.027035.4465702-.030415.714513l-.001267.2065396c0 .7163779.042242 1.625792.126728 2.7282696l-3.456865.3977272c-.056324-.4093587-.107954-.8163855-.154891-1.2210925-.046936-.4047069-.083312-.7803345-.109127-1.1268939s-.038722-.7198611-.038722-1.1199163l.004506-.2433811c.004505-.1401112.012391-.307854.023656-.5032297l-.126729-4.0679825 2.766901-.3488836.401306.4605264c.741599-.2372421 1.347073-.3558613 1.816439-.3558613.520996 0 1.020864.1372262 1.499618.4116826 1.215659-.3814479 2.119175-.572169 2.710577-.572169zm-113.235672 3.0750211c-.2130188 0-.4191311.0543204-.6183432.162963-.199212.1086425-.3402362.2370363-.4230769.3851851-.2445772.3950638-.3668639.8296273-.3668639 1.3037038 0 .1728403.0138066.3382708.0414201.4962962l.0426035.2180741c.0260355.1232589.0591715.267851.0994084.4337778l1.816568-2.8148148c-.1932949-.1234574-.3905315-.1851852-.591716-.1851852zm98.524768-.1773835c-.258562 0-.508741.0553264-.750544.1659808-.241803.1106545-.412977.2414259-.513529.3923183-.296867.4023797-.445299.8449907-.445299 1.3278463 0 .1760412.016759.3445351.050276.505487l.051712.2221124c.031602.1255415.071822.2728113.120662.4418108l2.204945-2.866941c-.234621-.1257437-.474026-.1886146-.718223-.1886146zm-106.9831043-.8226165c-.3480474 0-.5190917.0606514-.8155766.205883-.2964848.1452317-.5467744.3378186-.7508763.5777666s-.3319322.4841019-.3834948.7324691c0 .2357383.0547844.4662112.1643549.6914255s.2309556.3820201.3641589.470422c.3437506.2146903.6703087.3220338.9796842.3220338.3050786 0 .5757781-.0999768.8121066-.2999335.2363285-.1999566.4167948-.4567392.5414044-.7703554.1246095-.3136162.2068666-.6875613.0594583-1.2394421-.1474084-.5518807-.6252711-.690269-.9712196-.690269zm54.0500523 0c-.260974.0295985-.5183854.1035935-.772242.2219873-.2538565.1183938-.4709362.2579273-.6512455.4186047-.1803094.1606773-.3214705.3372083-.4234876.5295983-.1020171.1923899-.1530249.3816058-.1530249.5676533 0 .3847799.2040312.6976744.6120996.9386892.3606187.2156459.7259768.3234672 1.0960855.3234672.0711747 0 .1684454-.0084566.2918149-.02537zm34.800145-.3162723c-.299671 0-.589122.0567779-.868361.1703354s-.518745.2600445-.718526.4394654-.35983.3815502-.480153.6063941c-.120322.2248439-.180483.45082-.180483.677935 0 .422434.195238.7585592.585718 1.0083858.363238.2316573.708309.3474843 1.035223.3474843.322374 0 .608419-.1078781.858145-.3236374.249727-.2157593.440424-.4928354.572097-.8312369.131674-.3384014.19751-.673391.19751-1.004979 0-.227115-.027243-.4360577-.081728-.6268344-.077188.3452149-.244048.6495445-.500585.9129979-.256537.2634535-.507394.3951782-.75258.3951782-.122592 0-.231562-.0317956-.326912-.0953878-.136214-.1090152-.20432-.299789-.20432-.5723271 0-.2089458.069241-.4156174.207725-.6200209.138485-.2044036.357559-.3656528.65723-.4837526zm42.46213.1343755c-.305832.0323115-.595699.1164512-.869609.2524217-.273911.1359704-.504062.2983547-.690461.4871576-.186399.188803-.330036.3944916-.430915.6170719-.10088.2225803-.14025.4397293-.118112.6514533.041176.3938067.273191.6861024.69605.876896.393286.176793.756741.2475641 1.090375.2123154.329001-.0347596.610412-.1661693.84424-.3942333.233829-.2280641.401439-.5069251.502834-.8365914.101395-.3296662.135931-.6490531.10361-.9581702-.022138-.211724-.070307-.4035698-.144508-.5755432-.045126.3301432-.185751.6318405-.421882.905101-.236131.2732604-.479305.4231067-.729531.4495434-.125113.0132183-.239422-.0046731-.342931-.0536749-.14964-.0869405-.237742-.2574426-.264308-.5115114-.020366-.1947861.030153-.3949179.15156-.6004014.121407-.2054834.329268-.3794265.623588-.5218345zm21.737725-14.8181032-2.884097 16.9594487-2.806581-.1322057.464987-14.9395982zm-70.912428 8.3524874c-.976626-.0106123-1.813337.3061604-2.533132.717841l.568618 3.276293c.44062-.3545556.979019-.8269127 1.615205-1.4170471l.278639-.2601257c.759-.7128975 1.177584-1.2440656 1.19424-1.5978154.023514-.499387-.596881-.7134227-1.12357-.7191458zm25.803576.5812403 1.652223 2.408421-4.668069.841579-.829719-1.231579z"/><filter id="b" height="114.3%" width="102.3%" x="-1.2%" y="-3.6%"><feOffset dx="0" dy="1" in="SourceAlpha" result="shadowOffsetOuter1"/><feGaussianBlur in="shadowOffsetOuter1" result="shadowBlurOuter1" stdDeviation=".5"/><feColorMatrix in="shadowBlurOuter1" type="matrix" values="0 0 0 0 0   0 0 0 0 0   0 0 0 0 0  0 0 0 0.1 0"/></filter></defs><g fill="none" fill-rule="evenodd"><path d="m20.3706897 17c1.2557709 0 2.5608334.1835796 3.9138191.5458328 1.2375693.3313512 2.6904838.7827459 4.3626528 1.3545927l1.9655163.6721654-.8934339 2.3206979-.1638831.4549458-.8911986 2.5669432-.1499239.4051597-.0825738.2071238-.0805183.1800994-.0355217.0715453-.0866246.145894 4.3888648-1.8615316.1270931 1.8207661c.9685704.032346 1.9223198.3166593 2.8299339.8211506.4527468.2452666.8498341.5616824 1.1821135.9424456l.1603488.1947254.1169093-.1067375c.3777963-.3294679.7839365-.6143861 1.2170174-.8528167.5313167-.2925139 1.0878225-.5138854 1.6661879-.6618451.5765671-.1474997 1.1680571-.2211568 1.7705583-.2211568.4364386 0 .8647393.0394237 1.283212.1183999l.6462067-3.0997871 7.249585-2.9005623.0859693 1.3329495 5.6468169-2.3599198 1.5486261 19.3094174-6.064443.6825024.0415015.6339967-7.2918899.3857063-.170527-3.1690197c-.5433646.295872-1.1431016.5329232-1.7965967.7140811-.8445433.2341192-1.6952857.3522356-2.5477695.3522356-.3246534 0-.6399919-.0184534-.9456873-.0559944l-.0353469.0548729-.0151833-.0612636c-.4355154-.0566858-.8512843-.1524564-1.2463479-.2891651-.8183809-.2831942-1.5038306-.7493402-2.0011665-1.3946051l-.0397604-.0541849c-.2109037.2169714-.4306593.4169117-.6595319.5994319-.6033851.4811847-1.2342921.8450441-1.8938935 1.0812567l.3513064 5.8417591-7.0954481.3830331-.3674261-7.0975615c-.1289658.0826685-.2622296.1600554-.3997349.2320207-.9813054.51358-2.1083572.7604002-3.358429.7604002-.6635587 0-1.3850416-.0702231-2.1684132-.2074675-.7425929-.1301001-1.4622832-.2941009-2.1588733-.4922149-.659548-.1875791-1.3523472-.4028743-2.0858729-.6482639l-3.8835555-1.3153831.9042635-2.1254073.0799953-.20705.1557146-.4303031.7622166-2.2360198.1821684-.5157589c.034675-.0957373.0666464-.1814245.0967334-.2587203l.0854266-.2083726.0696864-.1501548.106202-.1918999c.0238937-.0397148.0410516-.0661468.0704752-.1056612l.2233146-.2849483c.1597766-.1954061.271235-.2546746.9033852-.4355113l.5278227-.1477839h.0308074l-.2923333-.3347264c-.2875284-.3395343-.5606292-.6934756-.8191879-1.0616729-.9002828-1.2820365-1.3761827-2.6352974-1.3761827-4.0297249 0-.7780898.1677833-1.5392466.4922423-2.2613009.9944517-2.2308617 3.0776713-3.3516541 5.8525853-3.3516541zm167.8538563-6-3.636756 21.3887579c.191253.2916223.341688.5914239.459299.9525419.121784.4276811.157726.8711832.111031 1.3169364-.058319.5567178-.225678 1.0947209-.492706 1.6040806-.234115.4465786-.514064.8462904-.841821 1.1940095-.515759.5471701-1.093705.9095233-1.877012.9547195-.411397.0213096-.723296.0225442-.990777-.0056688-.546227-.0575991-1.054392-.2014898-1.509284-.4335681l-.768761-.0003861-.000646-.2454228-6.129044.3750614.017623-.6191024-5.424276.6430842-.226774-1.7071906c-.474864.3944549-1.025313.7248448-1.643781.9887411-.839681.3582638-1.713645.5480429-2.608671.5638143-.959462.0169069-1.851626-.1776132-2.683882-.6163276-.124725-.0690796-.246451-.1441862-.365213-.2251494l-.050027.3195405-6.708671.397658.005337-.2565539-4.33689.2570702.012924-.520864-4.722289.5433197-.142724-1.0447855c-.602934.3350215-1.2752.5999997-2.013882.7988298-.88192.2373854-1.769395.3570258-2.658308.3570258-.692243 0-1.342448-.0782693-1.948259-.2401543l.259964 4.2825102-5.66103-4.0218032.07257 1.4086217-7.404354.1383637-.187159-3.5924369-.160887.1533511c-.463521.4291433-.950404.7846742-1.462038 1.0621988-.497888.2700688-1.004015.4738758-1.517876.6075194-.514531.1338181-1.032202.2018295-1.549522.2018295-.623393 0-1.227697-.0972042-1.80424-.2929859-.318982-.1083195-.619444-.2395004-.905618-.3991676l-6.51856 3.7630544-3.406918-14.5764277-.017777-.0018617-.748875-.3091421-.225861-.1029858c-.220682-.1081608-.304021-.1817789-.381639-.2987639l-.221935-.3667088-2.208551-7.3717882 2.980271-.6304717c3.23143-.6723954 5.122586-1.0206269 5.673468-1.0446945l1.294984-.0552124c.833441-.0311678 1.691464-.0489505 2.158118-.0001142l.503887.0553266.535715.0658837c.580049.0767543 1.008024.1547159 1.339114.2506013.635678.1928517 1.232946.4612798 1.787513.8044859.605563.374766 1.133803.8478104 1.577355 1.4113854.382091.4854831.686804 1.02725.916843 1.6287022l.679215 1.8945548c.120359.3301693.25945.7107034.417276 1.1416025l.254967-1.2580069 7.198686-2.9831056.480347 7.4251125h.785l.072345-.0380287.262655.0380287.089787.0007277-.024787.0092723 3.849454.5685338.023201-.0181098-2.037838-3.0248772 7.395297-3.8815676 3.453886 5.0350208 4.034488-.5088519.291584.3346121c.397574-.0741734.769002-.1122949 1.118689-.1122949.563549 0 1.113169.0957691 1.640559.2828485l.340104-.0923104c.887304-.2320558 1.618929-.3510245 2.229532-.3510245.798435 0 1.539801.1751449 2.198638.5469783.649798.3690358 1.268424.9246657 1.89178 1.6624232.138847.1643286.268261.3287674.387912.4934154.149793-.1875809.31875-.3674631.504767-.5412529.293114-.273848.621723-.5278213.984731-.7636313.365987-.2377456.757348-.4451191 1.172889-.6224367.529718-.2260083 1.0738-.3820706 1.629002-.4657041.11812-.017793.23607-.0316318.353774-.041494l.3942.0033051c.300134.0056045.529355.0183341.687662.0381889.236619.0296766.563372.1020553.980259.217136.322183.1179623.627542.2739091.911852.4647595l-.009949-.3117091 5.63457-.732101.251865.2978308.181839-.0467514c.527703-.1313611 1.047032-.1989567 1.556641-.1989567.716585 0 1.392802.1523185 1.994794.4595132l.222203.1224628.439223.2536176c.471563.2856781.839592.5781247 1.223418 1.0116467l.190974.2277808.390526-12.5320016zm-117.9128345 7.99803.0402885 2.38997 5.4905916-.5954467.4741351 5.0368816c.1724805-.0120016.3413491-.018047.5067154-.018047.894071 0 1.7195772.1811962 2.4598386.5634216.4063853.2117643.8174025.4994734 1.2482163.8629316.2731603.2304531.5276157.4765487.7627948.7379506.0647757-.0795054.1321901-.1575953.2021-.2342132.7026693-.7594741 1.452928-1.3554682 2.2559481-1.7768757.8707537-.4569527 1.7908827-.6932871 2.7684877-.6930364l.1210381.0021148 5.1392765-2.3793386-.0001422.0156574 6.6419633-3.0398996-.0600422 5.8532406 2.2126009.0551372v3.3825422l.58378-.3861452 1.032357 1.946903c.158778.2994378.31196.6875766.487775 1.2090163.215406.6388559.320566 1.3202624.320566 2.0369154 0 .9860593-.265057 1.9105623-.788808 2.7276159-.585579.9135066-1.500784 1.5475246-2.6736451 1.9397554-.728435.2402468-1.4424515.3649188-2.1400203.3649188-1.0615389 0-2.0421948-.2485077-2.905307-.7545859-.7510878-.4403937-1.3911304-.9839264-1.9022388-1.621236-.2611796-.3225665-.4525447-.6915982-.5959978-1.1147573l.0381139 2.1956123-3.6472952.2249708-1.2209822.0623212-.3231861.0052185c-.0536387-.0007029-.096565-.0025921-.1315947-.0055569l-.1741782-.0211371c-.1702656-.0271051-.3287557-.071823-.475133-.1315339-.2393491.0302697-.4802629.0455206-.7223468.0455206-.621488 0-1.2209444-.0993416-1.7887842-.3006328-.3803466-.1348276-.735069-.3063472-1.0698768-.5228158l-.1216495.6861262-6.8618038.3656209.0188659-.5781808-5.7100605.5905586-.0450718-.2935126-.8205687 1.6409267-1.8245785-1.0130194c-.7465934-.4145141-1.387937-.9352668-1.9060177-1.5526293-.4181522-.4936047-.6690618-1.1048696-.84051-1.8651037-.0954127-.4230783-.1695586-.8582029-.2226751-1.3052045l-.0461156-.4509542-.1200518-1.4291533-1.7508186.1169664-1.0923858-6.9083982 2.4896019-.1135388-.2010739-2.4189727z" fill="#ffdb00"/><g fill-rule="nonzero"><use fill="#000" filter="url(#b)" xlink:href="#a"/><use fill="#1a59ff" xlink:href="#a"/></g></g></svg>