<svg height="250" viewBox="0 0 450 250" width="450" xmlns="http://www.w3.org/2000/svg" xmlns:xlink="http://www.w3.org/1999/xlink"><defs><path id="a" d="m99.8854082 109.242647 1.9318738.211908 1.131843.135131c2.402862.297596 4.056755.577237 4.961709.838928 1.884395.571659 3.638657 1.360034 5.262839 2.365146 1.624182 1.005113 3.035193 2.268626 4.233075 3.790578 1.197881 1.521952 2.121959 3.267152 2.772262 5.235655.258318.804488.342089 1.633876.252287 2.48829-.336473 3.189687-2.483541 6.938347-6.441271 11.246093-3.957729 4.307745-7.866454 8.015888-11.726292 11.124539l-3.8189514 3.0382-1.1515186.896554c-1.471369 1.13774-2.6867823 2.044823-3.6462511 2.721258l4.7937115 27.755349-11.9680426 6.909724-13.5670676-58.0438c-.0339432-.003555-.1545315.082291-.3617668.257538l-4.2739258 3.835217c-.0848581-.008887-.296053-.650064-.6335911-1.923552l-.8843913-3.483964-1.5097877-6.157282-1.4223997-5.620845-.2236614-.830088c-.2573637-.938003-.4560598-1.595323-.5960904-1.971969l5.1535765-1.123148 1.9715101-.422394c.9729107-.20736 1.9265554-.408963 2.8609369-.604811 3.1146048-.652826 6.3865478-1.238772 9.8159271-1.757855 3.4293794-.519083 6.6985032-.874975 9.8074696-1.067688 2.3897989-.15285 4.815104-.100421 7.275988.157288zm54.4171998 15.757353 2.11728 32.659336 11.959773-6.475314 12.417564 1.837971-16.194334 12.271993 15.250141 11.367145.686685 11.338869-22.488951-15.976212.715298 13.883752-13.619263.254489-2.575071-49.116248-4.205949.933124 1.401983-6.956015zm210.371665 40.661179c1.626176.17148 2.998931.606608 4.118306 1.3054 1.119375.698791 2.014073 1.497444 2.68412 2.395984.670046.898539 1.110478 1.667825 1.321309 2.30788.203148.713385.263751 1.461152.181811 2.243326-.125472 1.197703-.49207 2.376139-1.099803 3.535345-.607734 1.159205-1.308887 2.160266-2.10348 3.003212-.794593.842945-1.49475 1.2819-2.100494 1.316877l-.599163.027432c-.949465.037174-1.653229.031608-2.111306-.016695-2.267485-.239105-4.016656-1.059903-5.247564-2.462418-1.230908-1.402514-1.858375-3.204738-1.882421-5.406725.220217-2.102091.900314-4.007381 2.040313-5.715926 1.14-1.708546 2.739441-2.553101 4.798372-2.533692zm-241.906053-19.626184c1.495554 0 2.933565.183249 4.314076.549751 1.380512.366503 2.82811.953838 4.342837 1.762024 1.361338.71421 2.468606 1.67744 3.321839 2.889718s1.476371 2.574895 1.869433 4.087894c.393063 1.512998.589591 3.087056.589591 4.722222 0 1.35324-.110248 2.659474-.330746 3.918739-.220498 1.259266-.522481 2.415142-.905956 3.467662-.383476 1.052521-.834052 1.94527-1.351744 2.678275-1.207948 1.766731-2.502158 3.289104-3.882669 4.567165-1.380511 1.27806-2.789762 2.307071-4.227795 3.087064s-2.861664 1.353232-4.270936 1.719735-2.804143.549751-4.184654.549751c-1.62977 0-3.178029-.24903-4.644822-.747098-1.466794-.498067-2.717863-1.151184-3.753247-1.95937-1.706465-1.39083-3.039022-3.265604-3.997711-5.624378-.958688-2.358773-1.438025-4.853773-1.438025-7.485074 0-4.529597 1.332557-8.185172 3.997711-10.966833 2.281678-2.386966 4.640016-4.186561 7.075085-5.398839s4.927621-1.818408 7.477733-1.818408zm79.338882 1c2.426358 0 4.733275.384379 6.920818 1.153149s4.102809 1.883945 5.745855 3.345557l-15.73304 18.649698c1.394679 0 2.717693-.289471 3.969082-.868421 1.25139-.57895 2.40246-1.404654 3.453245-2.477136 1.050785-1.072481 1.986925-2.330018 2.808448-3.772648l6.906489 8.285591c-.55405 1.594486-1.867512 3.056076-3.940424 4.384814-2.072913 1.328738-4.537444 2.377477-7.393669 3.146247s-5.707631 1.153149-8.554303 1.153149c-2.521884 0-4.771486-.332179-6.748872-.996549-1.977387-.664369-3.501002-1.670398-4.570893-3.018119-1.853202-2.315801-2.77979-5.276945-2.77979-8.88352 0-2.847296.520609-5.651841 1.561841-8.413719 1.041233-2.761877 2.14454-4.693264 3.309957-5.794219 1.394678-1.309756 2.908741-2.401203 4.542234-3.274374s3.329053-1.52804 5.08673-1.964625 3.563089-.654875 5.416292-.654875zm134.331537-3.034995c1.83374 0 3.442917.410824 4.827578 1.232484l.432696.248909c1.509357.857083 2.976072 1.613446 4.73578 3.7594 1.927298 2.35033 3.345274 5.507605 3.813065 7.513984.991717 4.070084 1.487568 7.624189 1.487568 10.66242 0 1.605104-.102912 3.291393-.30874 5.058918l-.203918 1.637854-.122579.911053c-.172604 1.255684-.381868 2.675152-.627792 4.258417l-11.732138.716561.031186-1.095542.018711-1.375793c.004158-.505307.006238-1.057324.006238-1.656054 0-7.490483-1.010414-13.863031-3.031271-19.117834-.785888-1.968163-1.553054-2.952229-2.301519-2.952229-.973006 0-2.048909 1.375782-3.227742 4.127388-.280674.668793-.509888 1.433117-.687649 2.292994s-.30874 1.824835-.392942 2.894904l-.080834 1.375797c-.030313.733756-.045469 1.536301-.045469 2.407643l.024948 2.079267.028719 1.050731c.073995 2.332014.22451 5.024339.451544 8.077008l-13.781052 1.633758c-.224539-1.681537-.430364-3.353495-.617481-5.015923-.187116-1.662429-.332129-3.205407-.435043-4.628981s-.15437-2.956998-.15437-4.600319l.017963-.999745.022453-.613374c.017964-.434139.041914-.918725.071853-1.45376l-.505212-16.710191 11.030455-1.433121 1.599837 1.89172 1.980308-.651275c1.255751-.397027 2.382596-.719743 3.38055-.968152 1.496931-.372613 2.928349-.558917 4.294299-.558917zm-38.099598 1.263305c1.444911.307992 2.759432.946865 3.943603 1.916638 1.330006 1.07375 2.43102 2.172468 3.303075 3.296185.872054 1.123717 1.597988 2.37208 2.17785 3.745114.988663 2.341232 1.397993 4.867279 1.227974 7.578229s-.909544 5.58175-2.218595 8.612484c-1.523108 3.537562-4.366015 6.194359-8.52879 7.970503-2.418233 1.031731-4.89703 1.569979-7.436478 1.614725-2.539449.044746-4.779042-.443534-6.718849-1.464853-1.144162-.633671-2.229435-1.526165-3.255853-2.677508-1.026417-1.151343-1.855549-2.475129-2.487444-3.971387-.535207-1.267438-.907596-2.619902-1.117155-4.057445-.209558-1.437542-.234689-2.969331-.075393-4.595412.159297-1.626082.558605-3.323382 1.197937-5.091953.639331-1.76857 1.536651-3.553707 2.691984-5.355462.472935-.762706 1.118699-1.526432 1.937311-2.291201.818612-.76477 1.763804-1.495248 2.835606-2.191458s2.229513-1.309616 3.473155-1.840271c1.502763-.641136 3.02555-1.077914 4.568417-1.310314 1.542868-.2324 3.036735-.194605 4.481645.113386zm-40.753904-1.263305c1.877555 0 3.492228.381442 4.844068 1.144338 1.671024.948968 3.47345 2.567772 5.407332 4.856459 1.933882 2.288688 3.135499 4.409879 3.604888 6.363637.995104 3.963337 1.492649 7.424227 1.492649 10.382775 0 1.563006-.103264 3.205068-.309795 4.926236l-.327613 2.482057-.210361 1.442879c-.125489.838981-.265347 1.740264-.419575 2.703852l-11.772212.697767.050068-2.406519.005867-1.183879.000391-.428741c0-7.294029-1.013864-13.499443-3.041624-18.616427-.375511-.911754-.81673-1.628121-1.32367-2.149123s-.957546-.781499-1.351833-.781499c-.413062 0-.61959.288407-.61959.865231 0 .33493.037551.623338.112653.865231.131429.297716.262856.697765.394285 1.20016 1.013879 4.037766 1.520812 7.498656 1.520812 10.382775 0 1.414148-.093877 2.898052-.281632 4.451754l-.234693 1.825049-.15255 1.116037c-.164285 1.183875-.363774 2.571267-.598469 4.162184l-11.772212.697767.042245-1.70255.010561-1.081538c.002347-.386098.00352-.797781.00352-1.235051 0-6.750126-.871883-12.556819-2.615674-17.420227l-.454113-1.1962c-.162721-.396954-.300408-.808376-.41306-1.234272l-.269115-1.200162c-.07093-.293579-.125169-.440367-.162721-.440367-.042915 0-.131811.14278-.266687.428342l-.381066.88346c-.356735.87454-.741628 1.776976-1.154691 2.707337-.281633.651253-.51163 1.39553-.689998 2.232855-.178367.837325-.309794 1.776975-.394284 2.818979-.067592.833603-.108147 1.786281-.121665 2.858052l-.00507.826159c0 2.865511.168978 6.503167.506938 10.913078l-13.828125 1.590909c-.225307-1.637435-.431835-3.265542-.61959-4.88437-.187756-1.618828-.333264-3.121338-.43653-4.507576-.103265-1.386238-.154897-2.879444-.154897-4.479665l.018024-.973524.022531-.597288c.018024-.422753.042057-.894629.072098-1.415631l-.506938-16.27193 11.068133-1.395535 1.605301 1.842106c2.966538-.948968 5.388548-1.423445 7.266103-1.423445 2.084086 0 4.083652.548904 5.998759 1.64673l.988294-.304795c4.367151-1.322594 7.651966-1.983881 9.854533-1.983881zm-58.846433 11.590551c-1.034296 0-2.035059.221305-3.002317.663923-.879326.40238-1.525159.871262-1.937514 1.406658l-.116703.162615c-1.187525 1.609519-1.781279 3.379963-1.781279 5.311385 0 .704165.067037 1.378141.201112 2.021948l.206858.88845.137906.531137c.099598.373406.214519.785441.344764 1.236106l8.820203-11.467764c-.938528-.502975-1.896195-.754458-2.87303-.754458zm-72.535097-4.555556c-1.198742 0-2.356601.227112-3.473611.681342s-2.075082 1.040178-2.874243 1.757861c-.799162.717684-1.43939 1.526201-1.920703 2.425577s-.721966 1.80328-.721966 2.71174c0 1.689736.780987 3.034237 2.342985 4.033543 1.453021.926629 2.83337 1.389937 4.141089 1.389937 1.289556 0 2.433793-.431512 3.432745-1.294549s1.761777-1.971342 2.288497-3.324948c.52672-1.353605.790077-2.693564.790077-4.019916 0-.90846-.108975-1.744231-.326929-2.507337-.308767 1.380859-.976238 2.598177-2.002434 3.651991-1.026197 1.053814-2.029674 1.580713-3.010463 1.580713-.490395 0-.926295-.127183-1.307713-.381551-.544883-.436061-.81732-1.199156-.81732-2.289309 0-.835783.276978-1.662469.830942-2.480083.553964-.817615 1.430305-1.462612 2.629047-1.935011zm169.856648.537502c-1.223384.129246-2.382908.465805-3.478603 1.009687s-2.016344 1.193419-2.761975 1.948631-1.320207 1.577966-1.723745 2.468287c-.403537.890321-.561026 1.758917-.472471 2.605813.164715 1.575227 1.092818 2.74441 2.784337 3.507584 1.573218.707173 3.027107.990257 4.361709.849262 1.316066-.139038 2.441762-.664677 3.377122-1.576933.935359-.912257 1.605829-2.027701 2.011429-3.346366s.543752-2.596212.414462-3.832681c-.088557-.846896-.281242-1.614279-.578063-2.302172-.180509 1.320572-.743039 2.527362-1.687606 3.620403-.944568 1.093042-1.917313 1.692427-2.918264 1.798174-.500476.052873-.957734-.018692-1.371789-.2147-.598591-.347762-.951015-1.02977-1.057282-2.046045-.081471-.779145.120616-1.579672.606269-2.401605.485652-.821934 1.317133-1.517707 2.49447-2.087339zm86.955062-59.2724125-11.536942 67.8377945-11.22686-.528823 1.860039-59.7583922zm-283.6632874 33.4099495c-3.9066915-.042449-7.2536956 1.224642-10.1330138 2.871364l2.2745669 13.105314c1.7625793-1.418364 3.9162768-3.307793 6.4611434-5.66833l1.1146064-1.040503.5705716-.542848c2.6749379-2.57994 4.1442889-4.524705 4.2066189-5.848414.094059-1.997548-2.387638-2.853691-4.4944934-2.876583zm103.2192444 2.324961 6.609206 9.633684-18.67317 3.366316-3.319034-4.926316zm-52.148344-54.034995.267232 3.9148936c1.630808-.8085147 3.282148-1.2127659 4.95407-1.2127659 2.028232 0 4.090694.5957387 6.187448 1.787234.973003.5390098 1.764413 1.2659529 2.374254 2.1808511.60984.9148982 1.055222 1.9432567 1.33616 3.0851063.280937 1.1418497.421404 2.3297811.421404 3.5638298 0 1.0212817-.078799 2.0070875-.236398 2.9574468-.157599.9503594-.373438 1.8226911-.647523 2.6170213-.274086.7943302-.596131 1.4680824-.966147 2.0212766-1.151159 1.787243-2.405081 3.234037-3.761804 4.3404255-1.356723 1.1063889-2.720278 1.9007069-4.090705 2.3829789-1.370428.482272-2.754538.723404-4.152374.723404l1.007259 17.12766-9.250339.510638-1.397828-27.6170213v-.2127659l-.052625-.7625543-.018944-.3725608c-.007105-.1703484-.010657-.3167992-.010657-.439353l-.370013-7.5319149-3.042334.6808511 1.007259-5.212766zm54.86093-12 2.664753 44.479889-9.174073.520111-1.830746-36.1373093-2.990219.6865465.99674-5.1178918zm15.374985-2 3.284098 44.864327-9.209925 1.135673-2.164271-37.6587673-2.620842 1.2726018.996739-5.1647535zm34.942677.8584377.23236 13.6978856 6.780461-.7656132.237064 8.600995-6.849799.8880958c-.165465 1.916165.392185 6.6039528.489536 8.5146283l.009397.2155958c.050734 1.453349.173137 2.6523284.367212 3.5969742.161404.7778885 1.435722 2.4781002 1.986699 2.8785993-.268017.8699752-3.414049 5.0376825-4.111191 6.4296405-1.635984-.908267-3.007253-2.021645-4.113849-3.340169-.518069-.611522-.939902-1.6391405-1.265512-3.0828873-.279094-1.2374971-.488377-2.5236741-.627854-3.8585593l-.063921-.6715018c-.129927-1.5106296-.520326-5.9764319-.601151-7.7357995l-.091426-2.5823365-5.926675.3959224-1.394113-8.8161408 7.096104-.3236039-.798461-9.6052418zm85.010689 1.1415623-.148578 14.0208644 6.919465.166915v8.0327869l-7.174169.0834575c-.254706 1.9751714-.382056 3.8320828-.382056 5.5707899 0 1.4466044.0849 2.6428169.254704 3.5886736.141503.7789408.495255 1.3770471 1.061267 1.7943368.566013.4172898 1.223992.6259315 1.973958.6259315.834868 0 1.567135-.2434154 2.196824-.7302534s.944528-1.1544915.944528-2.0029806l-.021225-.2764526-.037734-.2828281c-.007861-.0537066-.016509-.1106975-.025942-.1709726l6.94069-4.4441133c.297156.5424766.668596 1.4535455 1.114331 2.733234.445735 1.2796884.668598 2.677588.668598 4.1937407 0 1.8221651-.488178 3.4704347-1.464549 4.9448584-.976371 1.4744239-2.646082 2.5941339-5.009183 3.3591659-1.655586.528566-3.219171.792846-4.690803.792846-2.221598 0-4.177848-.479876-5.868809-1.439642-1.690962-.959767-3.095359-2.114251-4.213233-3.4634877-.523561-.6259345-.930376-1.6621885-1.220458-3.1087928-.290081-1.4466044-.47757-2.9557795-.562471-4.5275708-.084902-1.5717913-.127353-3.143559-.127353-4.7153502v-2.3576751l-6.261478.1877794-1.05977-6.0684225c-.364992-2.1472656-.535294-3.2610701-.510906-3.3414136l.062946-.0066492.093168-.0004372c.642345.0074506 3.229325.1836826 7.760942.528696l-.488183-9.5767511zm-20.203033 12 .499389 28.502857-6.570616.380488c-1.698246.09117-2.629224.130055-2.792933.116655-.313182-.025635-.313182-.446825 0-1.263571-1.52592.621431-3.065688.932142-4.619351.932142-1.192992 0-2.313139-.179522-3.360474-.538571-1.047336-.359049-1.95247-.842378-2.715429-1.45-1.234608-1.0219099-2.198697-2.3993961-2.892297-4.1325s-1.040394-3.5662999-1.040394-5.4996429c0-3.3281118.964089-6.0140374 2.892296-8.0578571 1.664639-1.7400087 3.381273-3.058805 5.149952-3.9564286 1.76868-.8976235 3.57548-1.3464285 5.420455-1.3464285l.676257.010357.267901.0129465c.081497.0051785.155192.0112202.221084.018125l.166463.1657143zm-202.903302-22c3.305653 0 6.788026.4777789 10.447224 1.4333512l1.178158.3137084c3.402206.9226955 7.349208 2.1331594 11.8411 3.6314201l-.484502 1.2277774-.275965.7404345c-.198505.5384979-.426065 1.1667459-.682681 1.8847452l-2.127649 6.0060802-.393318 1.0617404c-.344704.9100619-.543571 1.3650895-.596603 1.3650895l-.193139-.1462842c-.173951-.1164605-4.927078-2.6808499-9.579633-4.3686902l-.290612-.1043187c-4.356279-1.5468785-8.5253-2.1242829-8.948443-2.1242829-.813156 0-1.431851.1638099-1.856106.4914347-.724769.5278399-1.087148 1.1466774-1.087148 1.856531 0 .6552495.300509 1.3696428.901537 2.1432013s1.387655 1.5425551 2.359906 2.3070128c.972251.7644578 2.050549 1.510703 3.234928 2.2387581.789585.48537 1.571306.9383777 2.345173 1.3590288l1.154912.6067099c2.368757 1.2012908 4.42371 2.5709238 6.164923 4.1089401 1.741213 1.5380162 3.097924 3.0714591 4.070175 4.6003747s1.683751 3.0805596 2.134522 4.6549786.676153 3.0623592.676153 4.4638651c0 1.6563252-.291671 3.1670167-.875021 4.5321199-1.078315 2.3479775-2.660408 4.0543311-4.746328 5.1191111-2.08592 1.064781-4.57838 1.597163-7.477456 1.597163-1.661665 0-3.53101-.177461-5.608091-.532388-2.077081-.354926-4.083423-.800853-6.019086-1.337794s-3.977359-1.1557781-6.12515-1.8565311l-5.661123-1.870182.229528-.5264153.15401-.3816676c.190718-.482452.420075-1.0950101.688073-1.8376781l2.322412-6.6461025.543573-1.5016054.190384-.5012652c.231926-.5940911.37617-.8911331.432738-.8911331l.134932.1054116c.622572.4568635 2.239238 1.3363336 4.850038 2.6384321l.56811.278056c3.022131 1.4536738 8.657328 3.7916171 11.926398 4.015149 3.487008.238434 4.573306-1.1800703 4.581666-2.6960423s-1.609159-3.007977-4.827522-4.8449377l-.71428-.3970323c-2.262693-1.2194922-4.777249-2.9258456-7.543745-5.1191114-2.766495-2.1932657-5.188247-4.7323196-7.265328-7.6172376-2.077082-2.8849181-3.115607-5.7652426-3.115607-8.64106 0-1.4743114.327025-2.9212991.981085-4.3410064 1.979856-4.3319275 6.107441-6.4978587 12.382878-6.4978587zm156.239886 9 1.419378 16.4041688c2.566363-.8198652 4.781431-1.2297916 6.64527-1.2297916 1.70613 0 3.190011.3543432 4.451686 1.0630402.759873.4307766 1.612925 1.0804057 2.559182 1.948907.946257.8685012 1.781388 1.8238434 2.505418 2.8660396.724029 1.0422015 1.207903 2.0565956 1.451636 3.043213.759873 2.9598521 1.139804 5.544473 1.139804 7.75394 0 1.1672657-.078854 2.393571-.236563 3.6789528l-.156246 1.1910824-.119049.8351508c-.127279.8700455-.279245 1.844776-.4559 2.924199l-8.989395.521098.023896-.796701.009363-.546762c.006502-.483364.009753-1.0360499.009753-1.6580622 0-5.4472395-.774199-10.0814925-2.322619-13.9028978-.602163-1.43129-1.189981-2.1469242-1.76347-2.1469242-.745535 0-1.569913 1.0004984-2.473159 3.0015251-.215058.4863607-.390686 1.0421931-.52689 1.667514s-.236563 1.3270593-.30108 2.1052364c-.064518.7781771-.096776 1.6953006-.096776 2.7513981l.019116 1.5120876c.044604 1.8637712.167266 4.0763874.367987 6.637887l-10.559313 1.188104c-.091758-.644776-.155988-1.378476-.192691-2.2011171l-.022366-.633657c-.043012-1.0838895-.071686-2.2025023-.086023-3.3558719l-.056452-1.6544869c-.023298-.5263078-.051076-1.027429-.083335-1.5033677-.064518-.9518773-.197135-2.0322766-.397856-3.2412303l-.580655-27.1804779zm-90.138435 17c1.784087 0 3.480349.2795485 5.088837.838654s3.016771 1.3701414 4.224893 2.433132l-11.568411 13.5634168c1.025499 0 1.998303-.2105242 2.918442-.631579.92014-.4210547 1.766515-1.0215664 2.539151-1.801553.772636-.7799867 1.460974-1.6945591 2.065035-2.7437447l5.078301 6.0258844c-.40739 1.1596262-1.373171 2.2226009-2.897371 3.188956-1.5242.9663552-3.336356 1.7290745-5.436521 2.2881795s-4.196787.838654-6.289929.838654c-1.854326 0-3.508445-.241585-4.962406-.724763-1.45396-.483177-2.574266-1.214835-3.36095-2.1949954-1.362649-1.684219-2.043963-3.8377781-2.043963-6.460742 0-2.070761.3828-4.11043 1.148412-6.1190682s1.576868-3.4132833 2.433792-4.2139776c1.025498-.95255 2.13878-1.7463298 3.339878-2.3813632s2.447833-1.1113013 3.740242-1.428818c1.29241-.3175166 2.619919-.4762726 3.982568-.4762726zm-2.720126 6c-.745301 0-1.466439.1629613-2.163434.4888889-.696995.3259275-1.190405.7111089-1.480244 1.1555555-.855717 1.1851912-1.283569 2.4888818-1.283569 3.9111112 0 .5185211.048306 1.0148124.144919 1.4888888l.149059.6542221.190796.7347188c.048362.1786311.100699.3675026.15701.5666147l6.355735-8.4444444c-.676292-.3703723-1.366376-.5555556-2.070272-.5555556zm131.024556-4c-.782645.0986615-1.554605.3453116-2.315905.7399577s-1.412308.8597577-1.953044 1.3953489c-.540737.5355911-.96407 1.1240278-1.270013 1.7653276-.305943.6412999-.458912 1.2720195-.458912 1.8921776 0 1.2825998.611877 2.3255814 1.835648 3.1289641 1.081473.7188197 2.177159 1.0782241 3.287091 1.0782241.213449 0 .505157-.0281886.875135-.0845666zm-155.095173 0c-1.043772 0-1.556724.2021712-2.445863.6862767-.889139.4841056-1.639742 1.126062-2.251831 1.9258886-.612088.7998265-.995443 1.6136729-1.150076 2.4415636 0 .7857945.164295 1.5540374.49289 2.3047518.328595.7507145.692621 1.2734003 1.092089 1.5680732 1.030886.7156343 2.010214 1.0734461 2.938011 1.0734461.914912 0 1.726722-.3332561 2.435456-.9997782.708735-.6665221 1.249942-1.522464 1.623638-2.5678514.373696-1.0453873.62038-2.2918712.178312-4.1314736-.442068-1.8396025-1.875149-2.3008968-2.912626-2.3008968z"/><filter id="b" height="110.3%" width="104.4%" x="-2.2%" y="-3.7%"><feOffset dx="0" dy="2" in="SourceAlpha" result="shadowOffsetOuter1"/><feGaussianBlur in="shadowOffsetOuter1" result="shadowBlurOuter1" stdDeviation="2"/><feColorMatrix in="shadowBlurOuter1" type="matrix" values="0 0 0 0 0   0 0 0 0 0   0 0 0 0 0  0 0 0 0.1 0"/></filter></defs><g fill="none" fill-rule="nonzero"><path d="m117.505876 46c3.835719 0 7.824691.5472838 11.991055 1.6353699l1.204825.320875c3.52156.955065 7.575395 2.1982922 12.169067 3.7305013l6.007173 2.0036794-2.788004 7.0650961-.248418.6664214-.656747 1.8129917-2.156912 6.0868411-.408682 1.102758-.194463.505752 13.405468-5.8176316.382209 5.5992795c2.922953.1008516 5.797081.9774306 8.526709 2.5289441 1.785104.9888851 3.276453 2.3501761 4.413937 4.0338672 1.215714-1.0403381 2.526917-1.9336786 3.927002-2.6739188 1.633364-.863577 3.340921-1.5158846 5.113164-1.9512857 1.763705-.4333037 3.571867-.6495406 5.414068-.6495406 1.386247 0 2.745307.1249461 4.072112.3754505l1.988416-10.2072418 21.094893-9.0461453.279252 4.6819366 14.970342-6.8552393 4.331409 59.1717283-16.048751 1.978511.002838.030564-.459838.025436-4.727602.583767-.018398-.314767-16.004368.908046-.427924-8.46582c-1.663828.866502-3.498122 1.561175-5.496469 2.093174-2.599031.691914-5.214188 1.0406-7.833485 1.0406-2.469472 0-4.758204-.334271-6.85457-1.030931-2.49895-.830447-4.596896-2.20059-6.133293-4.11492-.150388-.185879-.295659-.374713-.435832-.566435-.565341.581431-1.153004 1.120435-1.76252 1.617487-1.633589 1.332168-3.336393 2.372401-5.112033 3.096999l.549997-.0022 2.86609 40.572 4.833185-2.615997 16.912754 2.50153c.728422-.608034 1.482469-1.174418 2.26161-1.698515l-7.984368-11.851185 26.032351-13.66294 13.500875 19.679107 16.290489-2.053642 1.232696 1.414535c1.905258-.424745 3.63577-.642947 5.216366-.642947 2.23207 0 4.402796.417708 6.478893 1.235243l.555218-.158317c4.03432-1.13588 7.250814-1.718872 9.807475-1.718872 2.86472 0 5.492503.620774 7.806997 1.926959 2.367211 1.344329 4.673768 3.415906 7.027385 6.201337 1.214104 1.436853 2.228581 2.865585 3.030606 4.290047.158548-.267441.324103-.533021.493538-.797095.76911-1.240351 1.754013-2.405167 2.940552-3.513663 1.084028-1.012728 2.30619-1.957259 3.663202-2.838732 1.365939-.887272 2.829485-1.662736 4.387063-2.327346 1.964892-.838297 3.977874-1.415665 6.029225-1.724658 2.246116-.338329 4.466004-.282166 6.626173.178287l.445642.101972c2.216105.542119 4.248742 1.566792 6.016115 3.014355.734152.592701 1.420668 1.19916 2.058812 1.820399l-.118723-3.862023 19.661653-2.554521 1.130571 1.336839.49702-.141131c.490564-.13705.961803-.261861 1.414087-.374443 1.957375-.487226 3.873246-.736583 5.743584-.736583 2.717104 0 5.247407.60745 7.43663 1.812716l1.735936.992577c2.1922 1.281668 3.72587 2.512486 5.463067 4.630989 1.329595 1.621433 2.524466 3.584747 3.442207 5.543818l1.402967-45.04046c-1.561181 1.285786-3.467638 2.269842-5.671474 2.98328-2.222887.709685-4.396543 1.07708-6.515635 1.07708-3.226126 0-6.203038-.730248-8.830516-2.221568-2.307559-1.309739-4.276893-2.92863-5.853798-4.832004-1.047105-1.251849-1.736413-2.745294-2.209781-4.5215759l.170357 9.7348189-13.363467.768662-1.066848.050865c-.526022.021759-.868792.028089-1.147658.020824l-.375085-.020021c-.703459-.05758-1.348485-.213315-1.931605-.448955-.728522.091464-1.461673.137525-2.198269.137525-1.842911 0-3.620294-.284854-5.30624-.862834-1.209839-.414759-2.334091-.950676-3.36153-1.611276l-.162479.996265-20.32816 1.178385.054282-1.809839-16.592979 1.866995-.297561-2.090267-.245459.361903c-.306584.459759-.489944.746173-.55879.869221l-2.822264 5.632721-5.473582-3.038828c-2.264206-1.257044-4.208718-2.835857-5.779493-4.707556-1.26223-1.48992-2.021283-3.339033-2.540504-5.6412469-.331655-1.4705535-.578762-2.9891816-.747861-4.6100131l-.068852-.7259268-.372677-4.4409394-5.338734.3566459-3.298063-20.8564117 7.574787-.3454334-.61514-7.3999518 20.792818-10.6704147.089814 5.2822309 17.662737-2.0872361 1.375703 15.8993989c.421726-.0264632.836649-.0397856 1.24497-.0397856 2.694901 0 5.189452.595686 7.410708 1.8434433 1.199041.6797437 2.401035 1.5951042 3.657297 2.7481375 1.169013 1.0729529 2.216242 2.2496513 3.137071 3.5258555 1.952785-1.9465059 4.02668-3.491211 6.228454-4.608635 2.594869-1.3169236 5.32884-1.9960356 8.227717-1.9953321l.405138.0062048 14.407205-6.4510512-.149496-2.9470134 21.576226-9.5611664-.18471 17.4305389 6.857078.1654101v10.3484862l1.906345-1.2206302 3.086727 5.6350012c.494768.9032297.971543 2.0726629 1.518225 3.642168.570726 1.6385367.894112 3.3709143.979467 5.1821048l29.781874-10.7569999-14.110736 82.9691007.013804.018412c.785821 1.099055 1.387043 2.156165 1.794364 3.237932l.181916.523155.139746.517599c.329945 1.337525.418314 2.718325.272333 4.111814-.206338 1.969611-.800094 3.878255-1.753159 5.696153-.854315 1.629541-1.86949 3.078942-3.051454 4.332831-1.745949 1.852195-3.654843 3.048951-6.192086 3.195028l-.638854.029118-.772074.023285c-.8586.017069-1.574844-.002214-2.203171-.068471-2.114391-.222961-4.050089-.802408-5.747636-1.745762l-5.141031-.001094-.000105-.888-20.891733 1.276897.074173-2.605629-22.041698 2.613066-.78252-5.86015c-.135739-1.016523-.264819-2.029777-.387239-3.039773-2.22233 2.713092-5.193224 4.857359-8.81988 6.404756-3.123668 1.332703-6.36532 2.036585-9.68531 2.095085-3.513297.061905-6.749726-.643706-9.619823-2.154828l-.111666-.06031c-1.377336-.76281-2.660162-1.737059-3.851439-2.907765l-.500396 3.133371-23.069456 1.367382.02135-1.026215-17.339679 1.027764.054788-2.208048-19.23182 2.212598-.731169-5.315187c-.340069.24703-.693066.487614-1.058594.721917-2.617148 1.677594-5.646532 2.966695-9.072139 3.888718-3.359898.904337-6.735253 1.359346-10.11374 1.359346-3.143509 0-6.034278-.426855-8.659799-1.308987-.447545-.150368-.883629-.314633-1.307729-.492796l.964623 15.919766-22.606136-16.059461.39656 7.697143-25.618366.478702-.908385-17.351254c-1.166998 1.545873-2.412604 2.9349-3.739369 4.163204-1.735746 1.606932-3.54876 2.930764-5.443216 3.958322-1.853215 1.005189-3.727544 1.759906-5.621478 2.252453-1.895941.493068-3.7977.742908-5.694812.742908-2.277649 0-4.477653-.35386-6.574009-1.065704-2.079167-.706006-3.926483-1.670392-5.515915-2.911049l-.098801-.078808c-.489207-.398722-.955904-.822009-1.400085-1.269154l.602862 3.483364-22.5951061 13.045237-13.3387204-57.066866-1.4867165-.155692-.8850601-.239883-.4334532-.122592c-.8474876-.247565-1.1372559-.394423-1.6118124-.764662l-.4094645-.330601-.4777437-.476102-.1668016-.178312c-.0471543-.053315-.0883125-.103244-.1308258-.157994l-.2189954-.297918c-.2573397-.368983-.4324112-.694669-.5886554-1.037746-.1447716-.317885-.257859-.62206-.3731241-.972l-.1159709-.366302c-.0799437-.261742-.1657794-.560636-.2613007-.909107l-.1510205-.561444-.8962096-3.531329-1.4990613-6.114226-1.3991399-5.531806-.2164328-.803503c-.213513-.778183-.371788-1.301783-.4338329-1.468668l-2.4095074-6.480941 11.9300145-2.599939 1.9777717-.423732 2.8807826-.609005c3.2274622-.676481 6.6102373-1.282275 10.1488359-1.81789 3.5996209-.544851 7.0439462-.919817 10.3224489-1.123027 2.3332473-.149234 4.6912191-.127188 7.0719159.065224l-6.4415316-2.126476 2.8266639-6.4828787.1067382-.264208.2352484-.6109915.3685233-1.000195 2.3448225-6.7091052.5762416-1.5896886.2102492-.5528512c.1691249-.4332243.3183507-.7867349.4740392-1.1073433.149803-.3084877.304509-.590243.518331-.9065295l.157051-.2249908.108238-.1416467c.057098-.0703857.123227-.1455037.218926-.2496046l.396344-.4235024.228759-.2054918.180447-.1504704c.088739-.0692123.183199-.1351892.319136-.2240274l.518087-.3297084.360732-.1758792.293334-.1348931c.406274-.1759227.698624-.2426943 1.387989-.3316105l.86052-.103488h.20691l-.59283-.6573708c-.977467-1.1060629-1.901986-2.2643129-2.773065-3.4741799-2.7754359-3.8548825-4.2463528-7.9344355-4.2463528-12.1468219 0-2.3546103.520162-4.6561717 1.5240217-6.8350925 3.0524161-6.6786903 9.3889791-10.0037726 17.8399411-10.0037726zm19.692838 60.810719c-.705274.545537-1.464704 1.027314-2.276581 1.441745-2.713225 1.384995-5.827165 2.050124-9.285794 2.050124-1.840357 0-3.844261-.190235-6.02232-.562416l-.493019-.088379c1.679635 1.155803 3.164653 2.552048 4.442209 4.17523 1.489362 1.892288 2.628942 4.044483 3.430463 6.471341.468005 1.457521.621718 2.975023.460821 4.505846-.452699 4.291485-2.950051 8.65172-7.269884 13.353594-.30735.334531-.614532.665409-.921563.992645 1.601971-.405341 3.234321-.609326 4.888562-.609326 1.828312 0 3.607573.226735 5.326192.682999.863538.229255 1.732841.523004 2.60433.877287l2.760201-13.690354 3.278669-1.359096z" fill="#ffdb00"/><g><use fill="#000" filter="url(#b)" xlink:href="#a"/><use fill="#1a59ff" xlink:href="#a"/></g></g></svg>